<svg width="59" height="59" viewBox="0 0 59 59" fill="none" xmlns="http://www.w3.org/2000/svg">
<path d="M49.1154 9.09546H9.0954C8.13049 9.09546 7.2051 9.47877 6.52281 10.1611C5.84052 10.8433 5.45721 11.7687 5.45721 12.7336V45.4773C5.45721 46.4422 5.84052 47.3676 6.52281 48.0498C7.2051 48.7321 8.13049 49.1154 9.0954 49.1154H49.1154C50.0803 49.1154 51.0057 48.7321 51.688 48.0498C52.3703 47.3676 52.7536 46.4422 52.7536 45.4773V12.7336C52.7536 11.7687 52.3703 10.8433 51.688 10.1611C51.0057 9.47877 50.0803 9.09546 49.1154 9.09546ZM49.1154 45.4773H9.0954V12.7336H49.1154V45.4773ZM40.0199 20.01C40.0199 22.9047 38.87 25.6809 36.8231 27.7277C34.7763 29.7746 32.0001 30.9245 29.1054 30.9245C26.2107 30.9245 23.4345 29.7746 21.3876 27.7277C19.3408 25.6809 18.1908 22.9047 18.1908 20.01C18.1908 19.5275 18.3825 19.0649 18.7236 18.7237C19.0648 18.3826 19.5275 18.1909 20.0099 18.1909C20.4924 18.1909 20.9551 18.3826 21.2962 18.7237C21.6374 19.0649 21.829 19.5275 21.829 20.01C21.829 21.9398 22.5956 23.7906 23.9602 25.1552C25.3248 26.5197 27.1756 27.2864 29.1054 27.2864C31.0352 27.2864 32.886 26.5197 34.2506 25.1552C35.6151 23.7906 36.3818 21.9398 36.3818 20.01C36.3818 19.5275 36.5734 19.0649 36.9145 18.7237C37.2557 18.3826 37.7184 18.1909 38.2008 18.1909C38.6833 18.1909 39.146 18.3826 39.4871 18.7237C39.8283 19.0649 40.0199 19.5275 40.0199 20.01Z" fill="#0F0F3D"/>
</svg>
