<svg width="67" height="67" viewBox="0 0 67 67" fill="none" xmlns="http://www.w3.org/2000/svg">
<g clip-path="url(#clip0_1_62)">
<path d="M32.1955 42.5811L25.9641 36.3497C25.6887 36.0743 25.5339 35.7007 25.5339 35.3111C25.5339 34.9216 25.6887 34.548 25.9641 34.2726C26.2396 33.9971 26.6132 33.8424 27.0027 33.8424C27.3922 33.8424 27.7658 33.9971 28.0413 34.2726L31.7658 37.9971L31.7645 24.9255C31.7645 24.7325 31.8025 24.5414 31.8764 24.3631C31.9502 24.1848 32.0585 24.0228 32.1949 23.8864C32.3314 23.7499 32.4934 23.6417 32.6717 23.5678C32.85 23.494 33.0411 23.456 33.2341 23.456C33.4271 23.456 33.6182 23.494 33.7964 23.5678C33.9747 23.6417 34.1367 23.7499 34.2732 23.8864C34.4097 24.0228 34.5179 24.1848 34.5918 24.3631C34.6656 24.5414 34.7036 24.7325 34.7036 24.9255L34.7023 37.9971L38.4269 34.2726C38.7023 33.9971 39.0759 33.8424 39.4654 33.8424C39.855 33.8424 40.2286 33.9971 40.504 34.2726C40.7795 34.548 40.9342 34.9216 40.9342 35.3112C40.9342 35.7007 40.7795 36.0743 40.504 36.3497L34.2726 42.5811C33.9972 42.8565 33.6236 43.0113 33.2341 43.0113C32.8445 43.0113 32.4709 42.8565 32.1955 42.5811ZM19.7327 46.7353C17.0624 44.065 15.2439 40.6629 14.5072 36.959C13.7705 33.2552 14.1486 29.4161 15.5937 25.9272C17.0389 22.4382 19.4862 19.4562 22.6261 17.3582C25.7661 15.2601 29.4577 14.1403 33.2341 14.1403C37.0105 14.1403 40.702 15.2601 43.842 17.3582C46.9819 19.4562 49.4292 22.4382 50.8744 25.9272C52.3196 29.4161 52.6977 33.2552 51.9609 36.959C51.2242 40.6629 49.4057 44.065 46.7354 46.7353C43.152 50.3112 38.2964 52.3194 33.2341 52.3194C28.1717 52.3194 23.3161 50.3112 19.7327 46.7353ZM21.8099 44.6582C24.0694 46.9177 26.9481 48.4564 30.0821 49.0798C33.2161 49.7032 36.4646 49.3833 39.4168 48.1605C42.369 46.9376 44.8922 44.8668 46.6675 42.21C48.4428 39.5531 49.3903 36.4294 49.3903 33.234C49.3903 30.0386 48.4428 26.915 46.6675 24.2581C44.8922 21.6012 42.369 19.5304 39.4168 18.3076C36.4646 17.0848 33.2161 16.7648 30.0821 17.3882C26.9481 18.0116 24.0694 19.5503 21.8099 21.8098C18.7845 24.8421 17.0854 28.9506 17.0854 33.234C17.0854 37.5174 18.7845 41.626 21.8099 44.6582Z" fill="#E75A5A"/>
</g>
<defs>
<clipPath id="clip0_1_62">
<rect width="47" height="47" fill="white" transform="translate(66.468 33.234) rotate(135)"/>
</clipPath>
</defs>
</svg>
