<svg width="67" height="67" viewBox="0 0 67 67" fill="none" xmlns="http://www.w3.org/2000/svg">
<g clip-path="url(#clip0_1_68)">
<path d="M34.2726 23.8869L40.504 30.1183C40.7794 30.3938 40.9342 30.7673 40.9342 31.1569C40.9342 31.5464 40.7794 31.92 40.504 32.1954C40.2285 32.4709 39.8549 32.6256 39.4654 32.6256C39.0759 32.6256 38.7023 32.4709 38.4268 32.1954L34.7023 28.4709L34.7036 41.5425C34.7036 41.7355 34.6656 41.9266 34.5917 42.1049C34.5179 42.2832 34.4096 42.4452 34.2732 42.5817C34.1367 42.7181 33.9747 42.8264 33.7964 42.9002C33.6181 42.9741 33.427 43.0121 33.234 43.0121C33.041 43.0121 32.8499 42.9741 32.6717 42.9002C32.4934 42.8264 32.3314 42.7181 32.1949 42.5817C32.0584 42.4452 31.9502 42.2832 31.8763 42.1049C31.8025 41.9266 31.7645 41.7355 31.7645 41.5425L31.7658 28.4709L28.0412 32.1954C27.7658 32.4709 27.3922 32.6256 27.0027 32.6256C26.6131 32.6256 26.2395 32.4709 25.9641 32.1954C25.6886 31.92 25.5339 31.5464 25.5339 31.1569C25.5339 30.7673 25.6886 30.3938 25.9641 30.1183L32.1955 23.8869C32.4709 23.6115 32.8445 23.4568 33.234 23.4568C33.6236 23.4568 33.9971 23.6115 34.2726 23.8869ZM46.7353 19.7327C49.4057 22.403 51.2242 25.8052 51.9609 29.509C52.6976 33.2128 52.3195 37.0519 50.8744 40.5409C49.4292 44.0298 46.9819 47.0118 43.8419 49.1099C40.702 51.2079 37.0104 52.3278 33.234 52.3278C29.4576 52.3278 25.7661 51.2079 22.6261 49.1099C19.4862 47.0118 17.0389 44.0298 15.5937 40.5409C14.1485 37.0519 13.7704 33.2128 14.5072 29.509C15.2439 25.8052 17.0624 22.403 19.7327 19.7327C23.3161 16.1569 28.1717 14.1486 33.234 14.1486C38.2964 14.1486 43.152 16.1569 46.7353 19.7327ZM44.6582 21.8098C42.3987 19.5503 39.52 18.0116 36.386 17.3882C33.252 16.7648 30.0035 17.0848 27.0513 18.3076C24.0991 19.5304 21.5759 21.6012 19.8006 24.2581C18.0253 26.915 17.0778 30.0386 17.0778 33.234C17.0778 36.4294 18.0253 39.5531 19.8006 42.2099C21.5759 44.8668 24.0991 46.9376 27.0513 48.1604C30.0035 49.3833 33.252 49.7032 36.386 49.0798C39.52 48.4564 42.3987 46.9177 44.6582 44.6582C47.6836 41.6259 49.3827 37.5174 49.3827 33.234C49.3827 28.9506 47.6836 24.8421 44.6582 21.8098Z" fill="#8DD521"/>
</g>
<defs>
<clipPath id="clip0_1_68">
<rect width="47" height="47" fill="white" transform="translate(0 33.234) rotate(-45)"/>
</clipPath>
</defs>
</svg>
