<svg width="59" height="59" viewBox="0 0 59 59" fill="none" xmlns="http://www.w3.org/2000/svg">
<path d="M56.3076 10.8896C56.2816 10.4446 56.0931 10.0246 55.7779 9.70937C55.4627 9.39415 55.0427 9.20565 54.5976 9.17966C42.8281 8.4975 33.378 12.0766 29.3168 18.7799C26.6337 23.2117 26.6382 28.5939 29.2805 33.7283C27.7765 35.5186 26.6774 37.6129 26.0584 39.8677L22.3588 36.1545C24.137 32.4413 24.0688 28.5712 22.1314 25.3559C19.1299 20.4012 12.2015 17.7453 3.59945 18.2501C3.15442 18.2761 2.73443 18.4646 2.41921 18.7798C2.10399 19.095 1.91549 19.515 1.8895 19.96C1.38243 28.5621 4.04058 35.4905 8.99533 38.492C10.6304 39.491 12.5092 40.0197 14.4253 40.0201C16.2851 39.9972 18.116 39.5565 19.7825 38.7308L25.4672 44.4154V50.9346C25.4672 51.4171 25.6588 51.8798 26 52.2209C26.3411 52.562 26.8038 52.7537 27.2863 52.7537C27.7687 52.7537 28.2314 52.562 28.5726 52.2209C28.9137 51.8798 29.1054 51.4171 29.1054 50.9346V44.229C29.0973 41.335 30.0821 38.5259 31.8954 36.2705C34.2351 37.4932 36.8299 38.1476 39.4696 38.1805C42.0218 38.1887 44.5265 37.4915 46.7073 36.1659C53.4107 32.1093 56.9988 22.6591 56.3076 10.8896ZM10.8713 35.3814C7.38316 33.269 5.40944 28.2687 5.45719 21.8292C11.8968 21.7746 16.897 23.7551 19.0094 27.2432C20.1122 29.0623 20.2919 31.1838 19.5688 33.369L14.0183 27.8185C13.6744 27.4918 13.2164 27.3123 12.7421 27.3184C12.2677 27.3244 11.8145 27.5156 11.4791 27.851C11.1436 28.1865 10.9525 28.6397 10.9464 29.114C10.9403 29.5884 11.1198 30.0463 11.4465 30.3903L16.997 35.9408C14.8119 36.6638 12.6926 36.4842 10.8713 35.3814ZM44.8223 33.0575C41.7753 34.9016 38.194 35.0426 34.5558 33.5123L46.7642 21.3016C47.0909 20.9577 47.2704 20.4997 47.2643 20.0254C47.2583 19.5511 47.0671 19.0978 46.7317 18.7624C46.3962 18.427 45.943 18.2358 45.4687 18.2297C44.9943 18.2237 44.5364 18.4031 44.1924 18.7299L31.9818 30.9246C30.4447 27.2864 30.5834 23.7028 32.4366 20.6581C35.6063 15.4282 43.1237 12.5131 52.749 12.7383C52.9673 22.3612 50.0567 29.8877 44.8223 33.0575Z" fill="black"/>
</svg>
