<svg width="59" height="59" viewBox="0 0 59 59" fill="none" xmlns="http://www.w3.org/2000/svg">
<path d="M52.4444 5.76631C51.7687 5.09046 50.9665 4.55434 50.0836 4.18856C49.2006 3.82279 48.2543 3.63452 47.2986 3.63452C46.343 3.63452 45.3966 3.82279 44.5137 4.18856C43.6308 4.55434 42.8286 5.09046 42.1529 5.76631C42.1211 5.79814 42.0892 5.83225 42.0574 5.86863L29.9127 20.0598L27.5138 17.6541C27.007 17.147 26.4052 16.7448 25.7429 16.4703C25.0807 16.1959 24.3708 16.0547 23.6539 16.0547C22.937 16.0547 22.2271 16.1959 21.5648 16.4703C20.9025 16.7448 20.3008 17.147 19.794 17.6541L2.35574 35.0946C2.01485 35.4357 1.82336 35.8982 1.82336 36.3805C1.82336 36.8627 2.01485 37.3252 2.35574 37.6663L20.5466 55.8572C20.8878 56.1981 21.3503 56.3896 21.8325 56.3896C22.3148 56.3896 22.7773 56.1981 23.1184 55.8572L40.5566 38.4281C41.0637 37.9213 41.4659 37.3195 41.7404 36.6573C42.0148 35.995 42.156 35.2851 42.156 34.5682C42.156 33.8513 42.0148 33.1414 41.7404 32.4791C41.4659 31.8168 41.0637 31.2151 40.5566 30.7083L38.1509 28.3048L52.3421 16.1442C52.3762 16.1124 52.4126 16.0805 52.4444 16.0464C53.8059 14.6823 54.5705 12.8337 54.5705 10.9064C54.5705 8.97906 53.8059 7.13047 52.4444 5.76631ZM21.8291 52.0008L18.0363 48.2057L23.1161 43.1236C23.4429 42.7797 23.6223 42.3217 23.6163 41.8474C23.6102 41.373 23.419 40.9198 23.0836 40.5844C22.7482 40.2489 22.2949 40.0578 21.8206 40.0517C21.3462 40.0456 20.8883 40.2251 20.5444 40.5519L15.4623 45.6317L12.579 42.7484L17.6588 37.6663C17.9856 37.3224 18.1651 36.8645 18.159 36.3901C18.1529 35.9158 17.9618 35.4625 17.6263 35.1271C17.2909 34.7917 16.8377 34.6005 16.3633 34.5944C15.889 34.5884 15.431 34.7678 15.0871 35.0946L10.005 40.1744L6.20994 36.3816L16.3718 26.2197L31.991 41.8389L21.8291 52.0008ZM49.9159 13.4383L34.2921 26.8109C34.1014 26.9739 33.9464 27.1746 33.8369 27.4003C33.7274 27.6261 33.6658 27.8721 33.656 28.1228C33.6462 28.3735 33.6883 28.6235 33.7798 28.8572C33.8713 29.0908 34.0101 29.303 34.1875 29.4804L37.9735 33.2755C38.3144 33.6166 38.5059 34.0791 38.5059 34.5614C38.5059 35.0436 38.3144 35.5061 37.9735 35.8472L34.5627 39.258L18.9458 23.648L22.3566 20.2372C22.6978 19.8963 23.1603 19.7048 23.6425 19.7048C24.1248 19.7048 24.5873 19.8963 24.9284 20.2372L28.7235 24.0322C28.9009 24.2097 29.113 24.3485 29.3467 24.44C29.5803 24.5314 29.8304 24.5736 30.0811 24.5638C30.3318 24.5539 30.5778 24.4924 30.8035 24.3829C31.0293 24.2734 31.23 24.1184 31.393 23.9276L44.7724 8.29484C45.4602 7.64135 46.3761 7.28242 47.3248 7.29456C48.2735 7.30671 49.18 7.68898 49.8508 8.35986C50.5217 9.03075 50.904 9.93717 50.9161 10.8859C50.9283 11.8346 50.5693 12.7505 49.9159 13.4383Z" fill="black"/>
</svg>
